<svg height="512" viewBox="0 0 60 60" width="512" xmlns="http://www.w3.org/2000/svg"><g id="004---Locked-Folder"><path id="Shape" d="m56 0h-52c-2.209139 0-4 1.790861-4 4v38c0 2.209139 1.790861 4 4 4h16.882c-3.034 6.621 2.089 14 9.618 14s12.657-7.37 9.618-14h15.882c2.209139 0 4-1.790861 4-4v-38c0-2.209139-1.790861-4-4-4zm2 4v4h-36c-1.1045695 0-2-.8954305-2-2 0-1.949.136-2.813-.556-4h36.556c1.1045695 0 2 .8954305 2 2zm-54-2h12c1.1045695 0 2 .8954305 2 2 0 1.949-.136 2.813.556 4h-16.556v-4c0-1.1045695.8954305-2 2-2zm26.5 56c-4.55271.1284879-8.3525834-3.4478636-8.5-8 .0379139-2.96745 1.7256951-5.6666661 4.377-7 .9966601-.5074412 1.6239067-1.5315962 1.623-2.65v-10.35h3.693c-.4568381.7822226-.3308877 1.7738261.307 2.417l1 .993v6.94c-.0025181 1.1172104.6223423 2.141255 1.617 2.65 2.6533168 1.3320284 4.3434835 4.0313592 4.383 7-.1474166 4.5521364-3.94729 8.1284879-8.5 8zm4.5-36h-10v-3c0-2.7614237 2.2385763-5 5-5s5 2.2385763 5 5zm2 2v9c0 .5522847-.4477153 1-1 1h-1c0-1.561-.053-1.464-1.583-3 .7-.7.74-.712.924-1.066.4477156-.1710773.7110921-.6357602.6278685-1.1077671-.0832235-.472007-.4896417-.8185927-.9688685-.8262329h-8c-.5522847 0-1 .4477153-1 1s.4477153 1 1 1v4h-2c-.5522847 0-1-.4477153-1-1v-9zm21 18c0 1.1045695-.8954305 2-2 2h-17.115c-.906476-1.1527117-2.0472756-2.0999128-3.347-2.779-.3270249-.1680497-.5341297-.5033438-.538-.871v-4.35h1c1.6568542 0 3-1.3431458 3-3v-9c0-1.1045695-.8954305-2-2-2v-3c0-3.8659932-3.1340068-7-7-7s-7 3.1340068-7 7v3c-1.1045695 0-2 .8954305-2 2v9c0 1.6568542 1.3431458 3 3 3h2v4.35c-.0057346.3692474-.2145043.7052781-.543.874-1.2984159.6780478-2.4379173 1.6242804-3.343 2.776h-18.114c-1.1045695 0-2-.8954305-2-2v-32h56z"/><path id="Shape" d="m30.5 49c-1.9329966 0-3.5 1.5670034-3.5 3.5s1.5670034 3.5 3.5 3.5 3.5-1.5670034 3.5-3.5-1.5670034-3.5-3.5-3.5zm0 5c-.8284271 0-1.5-.6715729-1.5-1.5s.6715729-1.5 1.5-1.5 1.5.6715729 1.5 1.5-.6715729 1.5-1.5 1.5z"/><path id="Shape" d="m5 12c-.55228475 0-1 .4477153-1 1v2c0 .5522847.44771525 1 1 1s1-.4477153 1-1v-2c0-.5522847-.44771525-1-1-1z"/><path id="Shape" d="m5 18c-.55228475 0-1 .4477153-1 1v22c0 .5522847.44771525 1 1 1s1-.4477153 1-1v-22c0-.5522847-.44771525-1-1-1z"/><path id="Shape" d="m23 7c.543 0 .565-.151 2.707-2.293.2599566-.25107447.3642126-.62287789.2726972-.97250732-.0915155-.34962944-.3645604-.6226744-.7141899-.71418984-.3496294-.09151544-.7214328.01274058-.9725073.27269716l-2 2c-.2859079.28599425-.3714219.71603662-.216678 1.08965456s.5192821.61725909.923678.61734544z"/><path id="Shape" d="m28 7c.543 0 .565-.151 2.707-2.293.2599566-.25107447.3642126-.62287789.2726972-.97250732-.0915155-.34962944-.3645604-.6226744-.7141899-.71418984-.3496294-.09151544-.7214328.01274058-.9725073.27269716l-2 2c-.2859079.28599425-.3714219.71603662-.216678 1.08965456s.5192821.61725909.923678.61734544z"/><path id="Shape" d="m33 7c.543 0 .565-.151 2.707-2.293.2599566-.25107447.3642126-.62287789.2726972-.97250732-.0915155-.34962944-.3645604-.6226744-.7141899-.71418984-.3496294-.09151544-.7214328.01274058-.9725073.27269716l-2 2c-.2859079.28599425-.3714219.71603662-.216678 1.08965456s.5192821.61725909.923678.61734544z"/><path id="Shape" d="m38 7c.543 0 .565-.151 2.707-2.293.2599566-.25107447.3642126-.62287789.2726972-.97250732-.0915155-.34962944-.3645604-.6226744-.7141899-.71418984-.3496294-.09151544-.7214328.01274058-.9725073.27269716l-2 2c-.2859079.28599425-.3714219.71603662-.216678 1.08965456s.5192821.61725909.923678.61734544z"/><path id="Shape" d="m43 7c.543 0 .565-.151 2.707-2.293.2599566-.25107447.3642126-.62287789.2726972-.97250732-.0915155-.34962944-.3645604-.6226744-.7141899-.71418984-.3496294-.09151544-.7214328.01274058-.9725073.27269716l-2 2c-.2859079.28599425-.3714219.71603662-.216678 1.08965456s.5192821.61725909.923678.61734544z"/><path id="Shape" d="m48 7c.543 0 .565-.151 2.707-2.293.2599566-.25107447.3642126-.62287789.2726972-.97250732-.0915155-.34962944-.3645604-.6226744-.7141899-.71418984-.3496294-.09151544-.7214328.01274058-.9725073.27269716l-2 2c-.2859079.28599425-.3714219.71603662-.216678 1.08965456s.5192821.61725909.923678.61734544z"/><path id="Shape" d="m53 7c.543 0 .565-.151 2.707-2.293.2599566-.25107447.3642126-.62287789.2726972-.97250732-.0915155-.34962944-.3645604-.6226744-.7141899-.71418984-.3496294-.09151544-.7214328.01274058-.9725073.27269716l-2 2c-.2859079.28599425-.3714219.71603662-.216678 1.08965456s.5192821.61725909.923678.61734544z"/></g></svg>