<svg id="Line" height="512" viewBox="0 0 64 64" width="512" xmlns="http://www.w3.org/2000/svg"><g><path d="m58.059 26.596c-1.874-1.14-4.068-1.26-6.025-.33l-10.147 4.885c-.347-3.986-3.062-7.297-6.729-8.523 2.622-1.679 4.37-4.616 4.37-7.962 0-5.194-4.226-9.419-9.419-9.419-4.696 0-8.592 3.438-9.316 7.919-1.252-1.753-3.294-2.902-5.602-2.902-3.818 0-6.924 3.106-6.924 6.924 0 2.07.918 3.926 2.363 5.196-4.369 1.029-7.635 4.95-7.635 9.629v16.838c0 5.459 4.441 9.901 9.901 9.901h19.133c5.171 0 9.423-3.986 9.859-9.047l10.139 4.862c.877.431 1.802.645 2.725.645 1.142 0 2.279-.328 3.319-.978 1.866-1.167 2.937-3.098 2.937-5.298v-17.007c-.002-2.219-1.072-4.16-2.949-5.333zm-27.951-19.349c4.091 0 7.419 3.328 7.419 7.419 0 4.106-3.328 7.447-7.419 7.447-4.106 0-7.447-3.341-7.447-7.447 0-4.091 3.341-7.419 7.447-7.419zm-5.792 14.866h-4.286c.817-.81 1.433-1.823 1.768-2.957.626 1.154 1.49 2.156 2.518 2.957zm-14.05-4.924c0-2.715 2.209-4.924 4.924-4.924 2.7 0 4.896 2.209 4.896 4.924s-2.196 4.924-4.896 4.924c-2.715 0-4.924-2.209-4.924-4.924zm29.664 31.663c0 4.356-3.545 7.901-7.902 7.901h-19.133c-4.356 0-7.901-3.544-7.901-7.901v-16.838c0-4.356 3.544-7.901 7.901-7.901h19.133c4.357 0 7.902 3.544 7.902 7.901zm19.076.085c0 1.519-.709 2.797-1.997 3.603-1.298.813-2.754.896-4.109.229l-10.97-5.261v-14.158l10.966-5.279c1.354-.643 2.819-.56 4.113.228 1.288.805 1.997 2.094 1.997 3.631z"/><path d="m12.186 27.272c-2.13 0-3.863 1.72-3.863 3.834 0 2.13 1.733 3.863 3.863 3.863 2.115 0 3.835-1.733 3.835-3.863 0-2.113-1.721-3.834-3.835-3.834zm0 5.698c-1.027 0-1.863-.836-1.863-1.863 0-.995.853-1.834 1.863-1.834 1.012 0 1.835.823 1.835 1.834 0 1.027-.824 1.863-1.835 1.863z"/></g></svg>