<svg height="512" viewBox="0 0 60 60" width="512" xmlns="http://www.w3.org/2000/svg"><g id="027---Calendar-Prefs"><path id="Shape" d="m51 40c-.5522847 0-1 .4477153-1 1-.0055111 4.9682782-4.0317218 8.9944889-9 9-.5522847 0-1 .4477153-1 1s.4477153 1 1 1c6.0721626-.0071635 10.9928365-4.9278374 11-11 0-.5522847-.4477153-1-1-1z"/><path id="Shape" d="m42 31c0-.5522847-.4477153-1-1-1-6.0721626.0071635-10.9928365 4.9278374-11 11 0 .5522847.4477153 1 1 1s1-.4477153 1-1c.0055111-4.9682782 4.0317218-8.9944889 9-9 .2652165 0 .5195704-.1053568.7071068-.2928932s.2928932-.4418903.2928932-.7071068z"/><path id="Shape" d="m46 41c0-2.7614237-2.2385763-5-5-5s-5 2.2385763-5 5 2.2385763 5 5 5c2.7600532-.0033061 4.9966939-2.2399468 5-5zm-8 0c0-1.6568542 1.3431458-3 3-3s3 1.3431458 3 3-1.3431458 3-3 3-3-1.3431458-3-3z"/><path id="Shape" d="m57.586 36.7-2.39-.479c-.2149685-.6442675-.4752861-1.2725051-.779-1.88l1.354-2.03c.5728358-.8660495.6593682-1.9660313.229-2.911v-19.4c-.0033061-2.76005315-2.2399468-4.99669388-5-5h-3v-3c0-1.1045695-.8954305-2-2-2h-2c-1.1045695 0-2 .8954305-2 2v3h-11v-3c0-1.1045695-.8954305-2-2-2h-2c-1.1045695 0-2 .8954305-2 2v3h-11v-3c0-1.1045695-.8954305-2-2-2h-2c-1.1045695 0-2 .8954305-2 2v3h-3c-2.76005315.00330612-4.99669388 2.23994685-5 5v45c.00330612 2.7600532 2.23994685 4.9966939 5 5h37.36c1.4282996-.0060978 2.6560571-1.0141953 2.94-2.414l.478-2.391c.6442771-.2145467 1.2725209-.4745327 1.88-.778l2.03 1.353c1.1906835.7888245 2.7717243.6326001 3.785-.374l1.927-1.922c1.006917-1.0139321 1.1631299-2.5956922.374-3.787l-1.353-2.028c.3037596-.607474.5640786-1.2357149.779-1.88l2.392-.479c1.3976318-.2860703 2.4028742-1.513401 2.408-2.94v-2.72c-.0057123-1.4284384-1.013984-2.6564082-2.414-2.94zm-10.327 15.694c-5.3685764 2.9480723-12.0667042 1.7490207-16.0791728-2.8783801s-4.2507768-11.427831-.5720701-16.3247545c3.6787068-4.8969234 10.27647-6.5619043 15.8382429-3.9968654 4.4485055 2.0622839 7.3601302 6.4500272 7.5318511 11.3503056.171721 4.9002783-2.4256183 9.4810729-6.7188511 11.8496944zm-36.259-5.394c-.5522847 0-1-.4477153-1-1v-4h7v5zm16.13-19-.526.526c-1.006917 1.0139321-1.1631299 2.5956922-.374 3.787l.459.687h-7.689v-5zm-17.13 7h7v5h-7zm9 0h8.266c-.179.407-.327.813-.462 1.221l-2.392.479c-1.3992213.2844187-2.4064827 1.5121752-2.412 2.94v.36h-3zm5 4.64c.0010491-.4770483.3389194-.8869306.807-.979l1.432-.287c-.3185112 1.7361794-.3185112 3.5158206 0 5.252l-1.43-.286c-.4677615-.0937909-.805519-.5029409-.809-.98zm4.706-7.219-.81-1.215c-.2641461-.3973233-.2132092-.9254801.122-1.265l1.922-1.923c.3397363-.3312951.8646585-.3804545 1.26-.118l1.218.812c-1.4465733 1.0075224-2.7033083 2.2632418-3.712 3.709zm-11.706.579h-7v-4c0-.5522847.4477153-1 1-1h6zm2 9h3v.36c.0057123 1.4284384 1.013984 2.6564082 2.414 2.94l2.389.478c.1203815.4187147.2735207.8273088.458 1.222h-8.261zm8.9 8.8.811-1.216c1.0091274 1.4478078 2.2669206 2.7052624 3.715 3.714l-1.216.81c-.3973233.2641461-.9254801.2132092-1.265-.122l-1.922-1.923c-.3370793-.3377351-.3885814-.8665735-.123-1.263zm10.474-24.559.286-1.432c.0937909-.4677615.5029409-.805519.98-.809h2.72c.4761387.0031872.8849699.3394301.98.806l.287 1.436c-1.7377469-.3043368-3.5151374-.3046751-5.253-.001zm15.731 4.959-.812 1.218c-1.0081241-1.4488739-2.2656691-2.707096-3.714-3.716l1.221-.802c.397521-.2633549.9251349-.2124704 1.265.122l1.922 1.923c.3312352.3377595.3804716.8614179.118 1.255zm-10.105-29.2h2v8h-2zm-17 0h2v8h-2zm-17 0h2v8h-2zm-5 5h3v3c0 1.1045695.8954305 2 2 2h2c1.1045695 0 2-.8954305 2-2v-3h11v3c0 1.1045695.8954305 2 2 2h2c1.1045695 0 2-.8954305 2-2v-3h11v3c0 1.1045695.8954305 2 2 2h2c1.1045695 0 2-.8954305 2-2v-3h3c1.6568542 0 3 1.34314575 3 3v6h-52v-6c0-1.65685425 1.34314575-3 3-3zm-3 48v-37h52v9.13l-.526-.526c-1.0141828-1.006597-2.5959217-1.1623902-3.787-.373l-2.017 1.344c-.6069608-.3167125-1.2407681-.5790699-1.894-.784l-.475-2.38c-.2852589-1.398979-1.5132442-2.4056682-2.941-2.411h-2.72c-1.4282996.0060978-2.6560571 1.0141953-2.94 2.414l-.478 2.391c-.6442771.2145467-1.2725209.4745327-1.88.778l-2.03-1.353c-.8662454-.5731532-1.9665176-.6600566-2.912-.23h-18.4c-1.65685425 0-3 1.3431458-3 3v17c0 1.6568542 1.34314575 3 3 3h15.689l-.46.689c-.7880137 1.1906996-.6313908 2.7711285.375 3.784l1.922 1.927c1.0138546 1.0064386 2.5952338 1.1622374 3.786.373l2.029-1.352c.6073618.3040052 1.2356205.5643315 1.88.779.1335959.9463368.3340983 1.8820145.6 2.8h-31.821c-1.65685425 0-3-1.3431458-3-3zm37.64 3c-.4761387-.0031872-.8849699-.3394301-.98-.806l-.286-1.433c1.7361754.3185558 3.5158246.3185558 5.252 0l-.286 1.43c-.0937909.4677615-.5029409.805519-.98.809zm14.342-5.941-1.922 1.923c-.3389604.3344721-.8658743.3857867-1.263.123l-1.218-.812c1.4475766-1.0094034 2.7049864-2.2671517 3.714-3.715l.811 1.216c.2641461.3973233.2132092.9254801-.122 1.265zm4.018-9.699c-.0010491.4770483-.3389194.8869306-.807.979l-1.432.287c.3185112-1.7361794.3185112-3.5158206 0-5.252l1.43.286c.4677615.0937909.805519.5029409.809.98z"/></g></svg>