<svg id="Layer_1" enable-background="new 0 0 512.001 512" height="512" viewBox="0 0 512.001 512" width="512" xmlns="http://www.w3.org/2000/svg"><g><path d="m423.733 115.367c7.594 5.695 15.23 7.619 22.393 7.619 9.14 0 17.506-3.137 24.006-5.574 11.421-4.281 14.426-4.625 17.869-2.045 6.628 4.974 16.03 3.628 20.999-3.001 4.971-6.627 3.627-16.029-3.001-20.999-17.285-12.963-34.807-6.394-46.4-2.045-11.416 4.282-14.424 4.628-17.863 2.045-6.628-4.97-16.029-3.627-21.001 2.999-4.971 6.628-3.629 16.03 2.998 21.001z"/><path d="m505.999 155.633c-17.286-12.965-34.807-6.393-46.4-2.044-11.42 4.282-14.424 4.624-17.863 2.045-6.626-4.972-16.029-3.629-21 2.998-4.972 6.627-3.629 16.029 2.998 21 7.593 5.696 15.23 7.622 22.393 7.621 9.141 0 17.507-3.137 24.007-5.574 11.419-4.283 14.425-4.627 17.868-2.046 6.628 4.973 16.03 3.628 20.999-3.001 4.97-6.627 3.626-16.029-3.002-20.999z"/><path d="m505.999 219.9c-17.285-12.964-34.807-6.393-46.4-2.045-11.416 4.281-14.424 4.628-17.863 2.045-6.628-4.97-16.029-3.627-21.001 2.999-4.971 6.628-3.628 16.029 2.999 21.001 7.594 5.695 15.23 7.62 22.393 7.619 9.14 0 17.506-3.137 24.006-5.574 11.421-4.282 14.426-4.625 17.869-2.045 6.628 4.973 16.03 3.627 20.999-3.001 4.97-6.627 3.626-16.029-3.002-20.999z"/><path d="m371.485 65.031c-94.365-19.387-200.105-32.898-235.985-32.898-74.715 0-135.5 60.785-135.5 135.5 0 52.096 29.557 97.411 72.777 120.079l13.524 138.636c2.881 29.511 29.346 53.52 58.995 53.52h32.133c14.97 0 28.583-5.918 38.332-16.665 9.749-10.746 14.318-24.869 12.864-39.768l-12.435-127.456c45.771-5.829 102.325-14.859 155.294-25.742 6.976-1.434 11.981-7.572 11.981-14.693v-175.819c.002-7.121-5.004-13.26-11.98-14.694zm-172.716 361.316c.621 6.369-1.235 12.299-5.226 16.698s-9.714 6.822-16.113 6.822h-32.133c-14.396 0-27.738-12.105-29.138-26.433l-12.097-123.991c10.094 2.407 20.618 3.689 31.438 3.689 11.09 0 28.856-1.292 50.892-3.646zm154.698-183.078c-93.623 18.568-188.807 29.864-217.967 29.864-58.173 0-105.5-47.327-105.5-105.5s47.327-105.5 105.5-105.5c29.157 0 124.339 11.297 217.967 29.866z"/><path d="m64.268 167.633c0 39.278 31.955 71.234 71.232 71.234 39.278 0 71.234-31.956 71.234-71.234 0-39.277-31.956-71.232-71.234-71.232-39.277-.001-71.232 31.954-71.232 71.232zm112.466 0c0 22.736-18.498 41.234-41.234 41.234-22.735 0-41.232-18.498-41.232-41.234 0-22.735 18.497-41.232 41.232-41.232 22.736-.001 41.234 18.496 41.234 41.232z"/></g></svg>