<svg id="Layer_1" enable-background="new 0 0 512 512" height="512" viewBox="0 0 512 512" width="512" xmlns="http://www.w3.org/2000/svg"><g><path d="m456.832 112.467h-185.832v-49.268c0-8.284-6.716-15-15-15h-64.268c-8.284 0-15 6.716-15 15v61.833c-37.797 12.353-72.497 33.572-101.545 62.621-48.485 48.486-75.187 112.7-75.187 180.814v80.334c0 8.284 6.716 15 15 15h441.832c30.419 0 55.168-24.748 55.168-55.168v-241c0-30.419-24.749-55.166-55.168-55.166zm-250.1-34.268h34.268v34.719c-11.583.672-23.026 2.111-34.268 4.311zm-12.107 72.74c.667-.13 1.314-.312 1.946-.527 18.945-5.169 38.868-7.945 59.429-7.945h200.832c13.877 0 25.168 11.289 25.168 25.166v201.9h-452v-1.066c0-103.352 69.736-190.718 164.625-217.528zm262.207 282.862h-426.832v-34.268h452v9.1c0 13.878-11.291 25.168-25.168 25.168z"/><path d="m191.732 271h241c8.284 0 15-6.716 15-15v-64.268c0-8.284-6.716-15-15-15h-192.798c-34.849 0-63.201 28.352-63.201 63.201v16.067c-.001 8.284 6.715 15 14.999 15zm15-31.066c0-18.308 14.894-33.201 33.201-33.201h177.799v34.267h-211z"/><path d="m432.729 305.27c-3.95 0-7.81 1.601-10.6 4.391-2.8 2.79-4.4 6.659-4.4 10.609 0 3.94 1.6 7.811 4.4 10.601 2.79 2.79 6.65 4.399 10.6 4.399s7.82-1.609 10.61-4.399 4.39-6.66 4.39-10.601c0-3.95-1.6-7.819-4.39-10.609s-6.66-4.391-10.61-4.391z"/><path d="m368.469 305.27c-3.95 0-7.82 1.601-10.61 4.391s-4.39 6.659-4.39 10.609c0 3.94 1.6 7.811 4.39 10.601s6.66 4.399 10.61 4.399 7.81-1.609 10.6-4.399c2.8-2.79 4.4-6.66 4.4-10.601 0-3.95-1.6-7.819-4.4-10.609-2.79-2.791-6.65-4.391-10.6-4.391z"/><path d="m304.199 305.27c-3.95 0-7.81 1.601-10.61 4.391-2.79 2.79-4.39 6.659-4.39 10.609 0 3.94 1.6 7.811 4.39 10.601 2.8 2.79 6.66 4.399 10.61 4.399s7.81-1.609 10.61-4.399c2.79-2.79 4.39-6.66 4.39-10.601 0-3.95-1.6-7.819-4.39-10.609-2.789-2.791-6.66-4.391-10.61-4.391z"/><path d="m239.929 305.27c-3.94 0-7.81 1.601-10.6 4.391s-4.4 6.659-4.4 10.609c0 3.94 1.61 7.811 4.4 10.601s6.66 4.399 10.6 4.399c3.95 0 7.82-1.609 10.61-4.399s4.39-6.66 4.39-10.601c0-3.95-1.6-7.819-4.39-10.609-2.789-2.791-6.66-4.391-10.61-4.391z"/></g></svg>