<svg height="512" viewBox="0 0 48 60" width="512" xmlns="http://www.w3.org/2000/svg"><g id="038---Medilcal-Ledger"><path id="Shape" d="m44 0h-37c-1.85700356-.00159377-3.63840711.7353923-4.9515074 2.0484926-1.3131003 1.31310029-2.05008637 3.09450384-2.0484926 4.9515074v46c.00440864 3.8641657 3.13583434 6.9955914 7 7h37c2.209139 0 4-1.790861 4-4v-52c0-2.209139-1.790861-4-4-4zm-40.53 3.464c.93197788-.94275371 2.20435837-1.47044919 3.53-1.464h37c1.1045695 0 2 .8954305 2 2v8.556c-.6053465-.3599241-1.2957468-.5518554-2-.556h-37c-2.01867406-.0078588-3.83509851-1.2274303-4.60654906-3.09289829-.77145056-1.86546797-.34695274-4.01175642 1.07654906-5.44310171zm-1.47 49.536v-41.1c1.31549386 1.3453092 3.11841174 2.1025347 5 2.1h1v44h-1c-2.76005315-.0033061-4.99669388-2.2399468-5-5zm44 3c0 1.1045695-.8954305 2-2 2h-34v-44h34c1.1045695 0 2 .8954305 2 2z"/><path id="Shape" d="m7 6h36c.5522847 0 1-.44771525 1-1s-.4477153-1-1-1h-36c-.55228475 0-1 .44771525-1 1s.44771525 1 1 1z"/><path id="Shape" d="m7 10h36c.5522847 0 1-.44771525 1-1s-.4477153-1-1-1h-36c-.55228475 0-1 .44771525-1 1s.44771525 1 1 1z"/><path id="Shape" d="m28 20c-8.836556 0-16 7.163444-16 16s7.163444 16 16 16 16-7.163444 16-16c-.0104696-8.8322157-7.1677843-15.9895304-16-16zm0 30c-7.7319865 0-14-6.2680135-14-14s6.2680135-14 14-14 14 6.2680135 14 14c-.0082673 7.7285595-6.2714405 13.9917327-14 14z"/><path id="Shape" d="m36 32h-4v-4c0-1.1045695-.8954305-2-2-2h-4c-1.1045695 0-2 .8954305-2 2v4h-4c-1.1045695 0-2 .8954305-2 2v4c0 1.1045695.8954305 2 2 2h4v4c0 1.1045695.8954305 2 2 2h4c1.1045695 0 2-.8954305 2-2v-4h4c1.1045695 0 2-.8954305 2-2v-4c0-1.1045695-.8954305-2-2-2zm0 6h-5c-.5522847 0-1 .4477153-1 1v5h-4v-5c0-.5522847-.4477153-1-1-1h-5v-4h5c.5522847 0 1-.4477153 1-1v-5h4v5c0 .5522847.4477153 1 1 1h5z"/></g></svg>