<svg clip-rule="evenodd" fill-rule="evenodd" height="512" image-rendering="optimizeQuality" shape-rendering="geometricPrecision" text-rendering="geometricPrecision" viewBox="0 0 512 512" width="512" xmlns="http://www.w3.org/2000/svg" xmlns:xodm="http://www.corel.com/coreldraw/odm/2003"><g id="Layer_x0020_1"><g id="_2112205009984"><g><g id="_282539872"><path d="m179.15 453.63h-153.69c-14.04 0-25.46-11.42-25.46-25.45v-324.9c0-14.04 11.42-25.46 25.46-25.46h134.24c3.31 0 6 2.69 6 6 0 3.32-2.69 6-6 6h-134.24c-7.42 0-13.46 6.04-13.46 13.46v324.9c0 7.41 6.04 13.45 13.46 13.45h153.69c7.42 0 13.46-6.04 13.46-13.46 0-3.31 2.68-6 6-6 3.31 0 6 2.69 6 6 0 14.04-11.42 25.46-25.46 25.46z" fill="rgb(0,0,0)"/></g><g id="_282539104"><path d="m332.85 434.17h-153.7c-14.03 0-25.45-11.41-25.45-25.45v-324.9c0-14.03 11.42-25.45 25.45-25.45h153.7c14.03 0 25.45 11.42 25.45 25.45v324.9c0 14.04-11.42 25.45-25.45 25.45zm-153.7-363.8c-7.42 0-13.45 6.04-13.45 13.45v324.9c0 7.42 6.03 13.46 13.45 13.46h153.7c7.41 0 13.45-6.04 13.45-13.46v-324.9c0-7.41-6.04-13.45-13.45-13.45z" fill="rgb(0,0,0)"/></g><g id="_282540880"><path d="m486.54 453.63h-153.69c-14.04 0-25.46-11.42-25.46-25.46 0-3.31 2.69-5.99 6-5.99 3.32 0 6 2.68 6 5.99 0 7.42 6.04 13.46 13.46 13.46h153.69c7.42 0 13.46-6.04 13.46-13.46v-324.89c0-7.42-6.04-13.46-13.46-13.46h-134.24c-3.31 0-6-2.68-6-6 0-3.31 2.69-6 6-6h134.24c14.04 0 25.46 11.42 25.46 25.46v324.9c0 14.03-11.42 25.45-25.46 25.45z" fill="rgb(0,0,0)"/></g><g id="_282540280"><path d="m82.85 226.05c-16.99 0-30.81-13.82-30.81-30.81 0-3.31 2.69-6 6-6 3.32 0 6 2.69 6 6 0 10.37 8.44 18.81 18.81 18.81s18.81-8.44 18.81-18.81-8.44-18.8-18.81-18.8c-16.99 0-30.81-13.82-30.81-30.81 0-16.98 13.82-30.8 30.81-30.8s30.81 13.82 30.81 30.8c0 3.32-2.69 6-6 6-3.32 0-6-2.68-6-6 0-10.37-8.44-18.8-18.81-18.8s-18.81 8.43-18.81 18.8 8.44 18.81 18.81 18.81c16.99 0 30.81 13.82 30.81 30.8 0 16.99-13.82 30.81-30.81 30.81z" fill="rgb(0,0,0)"/></g><g><g id="_282540328"><path d="m125.17 254.4h-84.63c-3.32 0-6-2.69-6-6 0-3.32 2.68-6 6-6h84.63c3.31 0 6 2.68 6 6 0 3.31-2.69 6-6 6z" fill="rgb(0,0,0)"/></g><g id="_282540568"><path d="m125.17 309.85h-84.63c-3.32 0-6-2.69-6-6 0-3.32 2.68-6 6-6h84.63c3.31 0 6 2.68 6 6 0 3.31-2.69 6-6 6z" fill="rgb(0,0,0)"/></g><g id="_282540496"><path d="m125.17 365.29h-84.63c-3.32 0-6-2.68-6-6 0-3.31 2.68-6 6-6h84.63c3.31 0 6 2.69 6 6 0 3.32-2.69 6-6 6z" fill="rgb(0,0,0)"/></g></g><g id="_282540352"><path d="m129.06 416.63h-92.42c-3.31 0-6-2.69-6-6v-22.86c0-3.32 2.69-6 6-6h92.42c3.31 0 6 2.68 6 6v22.86c0 3.31-2.69 6-6 6zm-86.41-12h80.41v-10.86h-80.41z" fill="rgb(0,0,0)"/></g><g id="_282540400"><path d="m429.15 226.05c-16.99 0-30.81-13.82-30.81-30.81 0-3.31 2.69-6 6-6s6 2.69 6 6c0 10.37 8.44 18.81 18.81 18.81s18.8-8.44 18.8-18.81-8.43-18.8-18.8-18.8c-16.99 0-30.81-13.82-30.81-30.81 0-16.98 13.82-30.8 30.81-30.8 16.98 0 30.8 13.82 30.8 30.8 0 3.32-2.68 6-6 6-3.31 0-6-2.68-6-6 0-10.37-8.43-18.8-18.8-18.8s-18.81 8.43-18.81 18.8 8.44 18.81 18.81 18.81c16.98 0 30.8 13.82 30.8 30.8 0 16.99-13.82 30.81-30.8 30.81z" fill="rgb(0,0,0)"/></g><g><g id="_282540664"><path d="m471.46 254.46h-84.63c-3.31 0-6-2.69-6-6s2.69-6 6-6h84.63c3.32 0 6 2.69 6 6s-2.68 6-6 6z" fill="rgb(0,0,0)"/></g><g id="_282541600"><path d="m471.46 309.91h-84.63c-3.31 0-6-2.69-6-6 0-3.32 2.69-6 6-6h84.63c3.32 0 6 2.68 6 6 0 3.31-2.68 6-6 6z" fill="rgb(0,0,0)"/></g><g id="_282541168"><path d="m471.46 365.35h-84.63c-3.31 0-6-2.68-6-6 0-3.31 2.69-6 6-6h84.63c3.32 0 6 2.69 6 6 0 3.32-2.68 6-6 6z" fill="rgb(0,0,0)"/></g></g><g id="_282540448"><path d="m475.35 416.63h-92.41c-3.31 0-6-2.69-6-6v-22.86c0-3.32 2.69-6 6-6h92.41c3.32 0 6 2.68 6 6v22.86c0 3.31-2.68 6-6 6zm-86.41-12h80.41v-10.86h-80.41z" fill="rgb(0,0,0)"/></g><g id="_282541216"><path d="m256 201.2c-16.99 0-30.81-13.81-30.81-30.8 0-3.31 2.69-6 6-6 3.32 0 6 2.69 6 6 0 10.37 8.44 18.8 18.81 18.8s18.81-8.43 18.81-18.8-8.44-18.81-18.81-18.81c-16.99 0-30.81-13.82-30.81-30.8 0-16.99 13.82-30.81 30.81-30.81s30.81 13.82 30.81 30.81c0 3.31-2.69 6-6 6-3.32 0-6-2.69-6-6 0-10.37-8.44-18.81-18.81-18.81s-18.81 8.44-18.81 18.81 8.44 18.8 18.81 18.8c16.99 0 30.81 13.82 30.81 30.81s-13.82 30.8-30.81 30.8z" fill="rgb(0,0,0)"/></g><g><g id="_282541096"><path d="m298.31 235h-84.62c-3.32 0-6-2.68-6-6 0-3.31 2.68-5.99 6-5.99h84.62c3.32 0 6 2.68 6 5.99 0 3.32-2.68 6-6 6z" fill="rgb(0,0,0)"/></g><g id="_282541048"><path d="m298.31 290.45h-84.62c-3.32 0-6-2.68-6-6 0-3.31 2.68-6 6-6h84.62c3.32 0 6 2.69 6 6 0 3.32-2.68 6-6 6z" fill="rgb(0,0,0)"/></g><g id="_282541240"><path d="m298.31 345.9h-84.62c-3.32 0-6-2.69-6-6s2.68-6 6-6h84.62c3.32 0 6 2.69 6 6s-2.68 6-6 6z" fill="rgb(0,0,0)"/></g></g><g id="_282541648"><path d="m302.2 402.56h-92.41c-3.31 0-6-2.69-6-6v-22.86c0-3.31 2.69-6 6-6h92.41c3.32 0 6 2.69 6 6v22.86c0 3.32-2.68 6-6 6zm-86.41-12h80.41v-10.86h-80.41z" fill="rgb(0,0,0)"/></g></g></g></g></svg>