<svg height="512" viewBox="0 0 60 60" width="512" xmlns="http://www.w3.org/2000/svg"><g id="040---Information"><path id="Shape" d="m51 8h-10v-2c-.0033074-3.31233757-2.6876624-5.99669262-6-6h-10c-3.3123376.00330738-5.9966926 2.68766243-6 6v2h-10c-4.96827817.00551113-8.99448887 4.0317218-9 9v16c.00384928 2.0530898.70954551 4.0431532 2 5.64v12.36c.00551113 4.9682782 4.03172183 8.9944889 9 9h38c2.1198528-.0018462 4.1710194-.7519102 5.792-2.118 2.8722641-1.9662117 4.7456317-5.0860012 5.1313064-8.5453572.3856747-3.4593561-.7546004-6.9151289-3.1233064-9.4656428 2.0348726-1.7008873 3.2075725-4.2188939 3.2-6.871v-16c-.0055111-4.9682782-4.0317218-8.99448887-9-9zm-30-2c0-2.209139 1.790861-4 4-4h10c2.209139 0 4 1.790861 4 4v2h-18zm-10 52c-3.86416566-.0044086-6.99559136-3.1358343-7-7v-10.531c1.47796651.9948714 3.21838733 1.5277882 5 1.531h17v3c0 1.1045695.8954305 2 2 2h4c1.1045695 0 2-.8954305 2-2v-3h3.624c-3.1891874 5.4856956-1.5404786 12.5070797 3.757 16zm21-13h-4v-8h4zm16 13c-5.5228475 0-10-4.4771525-10-10s4.4771525-10 10-10 10 4.4771525 10 10c-.0060624 5.5203344-4.4796656 9.9939376-10 10zm10-25c.0051419 2.1525127-.990807 4.1850614-2.695 5.5-4.9609795-3.8442881-12.0519421-3.1886887-16.224 1.5h-5.081v-3c0-1.1045695-.8954305-2-2-2h-4c-1.1045695 0-2 .8954305-2 2v3h-17c-3.86599325 0-7-3.1340068-7-7v-16c.00440864-3.8641657 3.13583434-6.9955914 7-7h42c3.8641657.0044086 6.9955914 3.1358343 7 7z"/><path id="Shape" d="m48 44c-.5522847 0-1 .4477153-1 1v9c0 .5522847.4477153 1 1 1s1-.4477153 1-1v-9c0-.5522847-.4477153-1-1-1z"/><path id="Shape" d="m48 40c-.5522847 0-1 .4477153-1 1v1c0 .5522847.4477153 1 1 1s1-.4477153 1-1v-1c0-.5522847-.4477153-1-1-1z"/><path id="Shape" d="m11 12h-3c-.55228475 0-1 .4477153-1 1s.44771525 1 1 1h3c.5522847 0 1-.4477153 1-1s-.4477153-1-1-1z"/><path id="Shape" d="m50 12h-35c-.5522847 0-1 .4477153-1 1s.4477153 1 1 1h35c.5522847 0 1-.4477153 1-1s-.4477153-1-1-1z"/><path id="Shape" d="m7 44c-.55228475 0-1 .4477153-1 1v7c0 .5522847.44771525 1 1 1s1-.4477153 1-1v-7c0-.5522847-.44771525-1-1-1z"/></g></svg>