<svg id="Layer_1" enable-background="new 0 0 512.001 512.001" height="512" viewBox="0 0 512.001 512.001" width="512" xmlns="http://www.w3.org/2000/svg"><g><path d="m497 417.734h-1.066v-174.531c9.839-8.645 16.066-21.305 16.066-35.401 0-25.99-21.144-47.134-47.133-47.134h-417.732c-25.99 0-47.135 21.144-47.135 47.134 0 14.095 6.228 26.756 16.066 35.4v174.532h-1.066c-8.284 0-15 6.716-15 15v64.267c0 8.284 6.716 15 15 15h482c8.284 0 15-6.716 15-15v-64.267c0-8.284-6.715-15-15-15zm-31.066 0h-44.98v-162.8h43.914c.357 0 .71-.019 1.066-.027zm-119.957 0v-162.8h44.977v162.8zm-74.977 0v-162.8h44.977v162.8zm-74.978 0v-162.8h44.978v162.8zm-74.979 0v-162.8h44.979v162.8zm-73.908-227.066h417.732c9.447 0 17.133 7.686 17.133 17.134 0 9.447-7.686 17.133-17.133 17.133h-417.732c-9.448 0-17.135-7.686-17.135-17.133 0-9.448 7.687-17.134 17.135-17.134zm-1.068 64.239c.356.008.71.027 1.068.027h43.908v162.8h-44.976zm435.933 227.094h-452v-34.267h1.066 449.867 1.067z"/><path d="m147.601 102.401c-4.971 6.627-3.628 16.029 2.999 21 2.699 2.024 5.856 3.001 8.989 3.001 4.56 0 9.064-2.072 12.011-6 12.965-17.285 6.394-34.807 2.046-46.401-4.282-11.419-4.626-14.425-2.045-17.867 4.971-6.627 3.627-16.029-3-21s-16.03-3.627-21 3c-12.963 17.285-6.393 34.806-2.044 46.4 4.281 11.42 4.625 14.425 2.044 17.867z"/><path d="m244 70.267c-4.971 6.627-3.627 16.03 3 21 2.699 2.024 5.857 3.001 8.989 3.001 4.561 0 9.065-2.072 12.012-6 12.963-17.284 6.393-34.805 2.045-46.399-4.282-11.42-4.626-14.426-2.044-17.869 4.97-6.627 3.626-16.03-3.001-21-6.628-4.97-16.029-3.626-21 3.001-12.963 17.285-6.392 34.807-2.044 46.401 4.28 11.419 4.625 14.424 2.043 17.865z"/><path d="m340.401 102.401c-4.971 6.627-3.627 16.029 3 21 2.698 2.024 5.856 3.001 8.988 3.001 4.561 0 9.065-2.072 12.012-6.001 12.963-17.284 6.393-34.806 2.045-46.399-4.282-11.419-4.626-14.425-2.045-17.868 4.971-6.627 3.627-16.029-3-21-6.626-4.971-16.03-3.627-21 3-12.963 17.285-6.393 34.806-2.045 46.4 4.282 11.42 4.626 14.426 2.045 17.867z"/></g></svg>