<svg id="Layer_1" enable-background="new 0 0 512 512" height="512" viewBox="0 0 512 512" width="512" xmlns="http://www.w3.org/2000/svg"><g><path d="m239.933 0c-8.284 0-15 6.716-15 15v113.533h-34.266v-113.533c0-8.284-6.716-15-15-15s-15 6.716-15 15v113.533h-34.268v-113.533c0-8.284-6.716-15-15-15s-15 6.716-15 15v128.533c0 29.743 16.475 55.699 40.771 69.257-5.431 7.681-8.636 17.042-8.636 27.144v224.934c0 25.989 21.144 47.133 47.133 47.133s47.133-21.144 47.133-47.133v-224.934c0-10.102-3.205-19.463-8.636-27.144 24.294-13.559 40.769-39.514 40.769-69.257v-128.533c0-8.284-6.716-15-15-15zm-47.133 239.934v224.934c0 9.447-7.686 17.133-17.133 17.133s-17.133-7.686-17.133-17.133v-224.934c0-9.448 7.686-17.134 17.133-17.134s17.133 7.686 17.133 17.134zm-17.133-47.134c-21.938 0-40.573-14.413-46.933-34.267h93.865c-6.36 19.854-24.995 34.267-46.932 34.267z"/><path d="m304.2 0c-8.284 0-15 6.716-15 15v289.2 160.667c0 25.989 21.144 47.133 47.133 47.133s47.133-21.144 47.133-47.133v-145.667h17.135c8.284 0 15-6.716 15-15v-192.8c0-61.426-49.975-111.4-111.401-111.4zm49.266 464.867c0 9.447-7.686 17.133-17.133 17.133s-17.133-7.686-17.133-17.133v-145.667h34.266zm32.135-175.667h-17.135-49.266v-257.815c37.745 7.06 66.4 40.254 66.4 80.015v177.8z"/></g></svg>