<?xml version="1.0" encoding="iso-8859-1"?>
<!-- Uploaded to: SVG Repo, www.svgrepo.com, Generator: SVG Repo Mixer Tools -->
<svg fill="#000000" height="800px" width="800px" version="1.1" id="Layer_1" xmlns="http://www.w3.org/2000/svg" xmlns:xlink="http://www.w3.org/1999/xlink" 
	 viewBox="0 0 512 512" xml:space="preserve">
<g>
	<g>
		<path d="M478.609,133.565h-22.261V43.364C456.348,19.405,436.943,0,412.984,0h-24.576c-23.959,0-43.364,19.405-43.364,43.364
			v90.201h-2.229c-10.314-50.802-55.231-89.044-109.076-89.044s-98.762,38.241-109.076,89.044H33.391
			c-12.294,0-22.261,9.966-22.261,22.261v222.609c0,12.294,9.967,22.261,22.261,22.261h22.261v28.227
			c-13.306,7.696-22.261,22.071-22.261,38.555c0,24.598,19.923,44.522,44.522,44.522s44.522-19.923,44.522-44.522
			c0-16.485-8.955-30.859-22.261-38.555v-28.227h311.652v28.227c-13.306,7.696-22.261,22.071-22.261,38.555
			c0,24.598,19.923,44.522,44.522,44.522s44.522-19.923,44.522-44.522c0-16.485-8.955-30.859-22.261-38.555v-28.227h22.261
			c12.294,0,22.261-9.967,22.261-22.261V155.826C500.87,143.532,490.903,133.565,478.609,133.565z M389.565,44.522h22.261v89.044
			h-22.261V44.522z M233.739,89.043c29.075,0,53.813,18.585,62.982,44.522H170.757C179.926,107.628,204.664,89.043,233.739,89.043z
			 M456.348,356.174H55.652V178.087h89.044h178.087h44.522h66.783h22.261V356.174z"/>
	</g>
</g>
</svg>